<?xml version="1.0" standalone="no"?>
<!DOCTYPE svg PUBLIC "-//W3C//DTD SVG 20010904//EN"
 "http://www.w3.org/TR/2001/REC-SVG-20010904/DTD/svg10.dtd">
<svg version="1.0" xmlns="http://www.w3.org/2000/svg"
 width="260.000000pt" height="260.000000pt" viewBox="0 0 260.000000 260.000000"
 preserveAspectRatio="xMidYMid meet">
<metadata>
Created by potrace 1.14, written by Peter Selinger 2001-2017
</metadata>
<g transform="translate(0.000000,260.000000) scale(0.100000,-0.100000)"
fill="#000000" stroke="none">
<path d="M0 1300 l0 -1300 1300 0 1300 0 0 1300 0 1300 -1300 0 -1300 0 0
-1300z m2039 946 c48 -25 86 -85 84 -133 -2 -64 -30 -109 -101 -166 -121 -96
-256 -237 -297 -312 -86 -154 -108 -276 -81 -455 18 -120 25 -130 139 -188
103 -53 177 -138 177 -203 0 -38 -47 -105 -101 -144 -78 -58 -437 -235 -475
-235 -46 0 -63 9 -80 41 -20 39 -40 37 -141 -12 -104 -51 -146 -57 -190 -30
-38 24 -48 54 -39 116 10 65 98 151 205 202 45 21 83 44 86 52 3 8 -7 26 -22
41 -42 40 -76 81 -101 124 -33 55 -24 95 33 148 42 39 43 43 28 60 -17 19 -43
24 -43 9 0 -4 -22 -37 -49 -72 -54 -70 -111 -173 -111 -201 0 -9 -4 -19 -9
-23 -5 -3 -13 -19 -16 -37 -18 -82 -115 -201 -200 -246 -45 -24 -61 -26 -161
-27 -133 0 -148 7 -141 69 7 59 36 154 63 208 8 14 14 34 14 43 0 9 18 71 40
136 22 66 40 126 40 133 0 8 6 27 14 43 8 15 23 51 34 78 11 28 30 73 41 102
12 28 21 57 21 64 0 34 230 541 251 555 5 3 9 13 9 22 1 33 98 170 141 199 54
36 134 39 169 8 27 -24 60 -87 60 -114 0 -33 -39 -221 -51 -243 -8 -14 -8 -23
0 -31 12 -12 42 9 157 114 44 41 94 81 110 90 16 9 61 39 99 66 73 51 246 147
280 156 40 10 87 7 114 -7z"/>
<path d="M1920 2161 c-94 -38 -203 -107 -405 -253 -14 -10 -118 -102 -200
-175 -53 -49 -76 -63 -100 -63 -17 0 -36 5 -43 12 -14 14 -16 60 -3 74 17 16
71 228 78 299 4 40 1 56 -14 72 -28 32 -56 36 -87 12 -29 -23 -106 -133 -106
-153 0 -6 -4 -16 -9 -22 -15 -15 -89 -162 -102 -202 -6 -20 -15 -41 -19 -47
-9 -10 -77 -180 -112 -275 -11 -30 -26 -68 -33 -85 -13 -31 -35 -95 -60 -175
-17 -56 -43 -129 -55 -155 -5 -11 -14 -44 -20 -73 -7 -28 -16 -55 -21 -58 -5
-3 -9 -13 -9 -23 0 -10 -9 -47 -20 -82 -12 -35 -24 -83 -27 -106 l-6 -43 60 0
c129 0 209 72 267 240 46 136 95 215 207 332 71 74 117 62 163 -44 24 -53 29
-59 98 -92 83 -41 91 -42 126 -17 15 10 44 21 66 24 21 3 41 8 43 11 3 2 0 28
-6 56 -16 75 -14 265 4 334 44 169 168 335 373 500 81 65 92 81 92 125 0 21
-8 35 -29 50 -35 25 -34 25 -91 2z"/>
<path d="M1185 1010 c-17 -19 -17 -21 1 -42 38 -43 97 -98 105 -98 5 0 9 -6 9
-14 0 -8 9 -21 19 -28 11 -8 25 -25 31 -40 18 -39 -7 -68 -87 -102 -37 -16
-75 -35 -84 -43 -8 -7 -20 -13 -25 -13 -20 -1 -98 -62 -116 -91 -39 -63 10
-67 112 -8 8 5 26 14 40 20 14 6 50 24 80 40 30 16 74 37 96 48 23 11 45 24
48 30 4 6 15 11 26 11 22 0 120 86 120 106 0 22 -43 83 -63 90 -9 3 -21 13
-27 23 -5 10 -22 21 -37 24 -15 3 -46 21 -68 40 -37 31 -116 67 -149 67 -7 0
-21 -9 -31 -20z"/>
<path d="M1517 986 c-3 -8 3 -22 14 -32 10 -9 19 -22 19 -28 0 -6 25 -33 56
-60 67 -59 89 -98 74 -126 -6 -11 -41 -35 -78 -53 -82 -41 -155 -84 -193 -115
-30 -24 -40 -72 -16 -72 23 0 411 201 440 228 18 17 27 36 27 56 0 38 -6 47
-51 74 -19 12 -44 30 -54 42 -10 11 -25 20 -33 20 -8 0 -30 14 -49 30 -23 21
-44 30 -68 30 -18 0 -37 5 -40 10 -9 15 -42 12 -48 -4z m153 -81 c0 -8 -4 -15
-9 -15 -5 0 -14 7 -21 15 -10 13 -9 15 9 15 12 0 21 -6 21 -15z m40 -31 c0 -2
-7 -4 -15 -4 -8 0 -15 4 -15 10 0 5 7 7 15 4 8 -4 15 -8 15 -10z"/>
</g>
</svg>
